%TF.GenerationSoftware,KiCad,Pcbnew,7.0.7*%
%TF.CreationDate,2023-09-02T13:43:40-04:00*%
%TF.ProjectId,DXBREAKER,44584252-4541-44b4-9552-2e6b69636164,rev?*%
%TF.SameCoordinates,Original*%
%TF.FileFunction,Legend,Top*%
%TF.FilePolarity,Positive*%
%FSLAX46Y46*%
G04 Gerber Fmt 4.6, Leading zero omitted, Abs format (unit mm)*
G04 Created by KiCad (PCBNEW 7.0.7) date 2023-09-02 13:43:40*
%MOMM*%
%LPD*%
G01*
G04 APERTURE LIST*
%ADD10C,0.150000*%
%ADD11C,0.100000*%
%ADD12C,0.120000*%
G04 APERTURE END LIST*
D10*
G36*
X123218865Y-99003640D02*
G01*
X123902830Y-99003640D01*
X123902830Y-99392741D01*
X122808486Y-99392741D01*
X122808486Y-97308274D01*
X123902830Y-97308274D01*
X123902830Y-97697375D01*
X123218865Y-97697375D01*
X123218865Y-98169854D01*
X123788185Y-98169854D01*
X123788185Y-98558954D01*
X123218865Y-98558954D01*
X123218865Y-99003640D01*
G37*
G36*
X124870804Y-97697375D02*
G01*
X124482573Y-97697375D01*
X124482573Y-98033061D01*
X124484279Y-98057507D01*
X124489397Y-98079549D01*
X124497928Y-98099186D01*
X124509870Y-98116419D01*
X124525225Y-98131247D01*
X124543992Y-98143671D01*
X124566171Y-98153690D01*
X124582853Y-98159033D01*
X124601052Y-98163308D01*
X124620766Y-98166514D01*
X124641998Y-98168651D01*
X124664746Y-98169720D01*
X124676689Y-98169854D01*
X124708115Y-98170383D01*
X124738883Y-98171971D01*
X124768993Y-98174617D01*
X124798445Y-98178322D01*
X124827239Y-98183085D01*
X124855375Y-98188907D01*
X124882852Y-98195787D01*
X124909671Y-98203726D01*
X124935832Y-98212724D01*
X124961335Y-98222780D01*
X124986180Y-98233894D01*
X125010366Y-98246067D01*
X125033894Y-98259298D01*
X125056764Y-98273588D01*
X125078976Y-98288937D01*
X125100530Y-98305344D01*
X125122406Y-98323675D01*
X125142871Y-98342731D01*
X125161924Y-98362514D01*
X125179566Y-98383023D01*
X125195797Y-98404258D01*
X125210616Y-98426219D01*
X125224024Y-98448905D01*
X125236020Y-98472318D01*
X125246605Y-98496457D01*
X125255779Y-98521322D01*
X125263542Y-98546913D01*
X125269893Y-98573230D01*
X125274833Y-98600274D01*
X125278361Y-98628043D01*
X125280478Y-98656538D01*
X125281184Y-98685759D01*
X125281184Y-99110903D01*
X125280390Y-99132586D01*
X125278008Y-99153666D01*
X125274039Y-99174143D01*
X125268482Y-99194017D01*
X125261337Y-99213288D01*
X125252604Y-99231956D01*
X125242283Y-99250021D01*
X125230375Y-99267483D01*
X125216879Y-99284341D01*
X125201795Y-99300597D01*
X125190857Y-99311099D01*
X125173786Y-99325689D01*
X125156119Y-99338844D01*
X125137857Y-99350564D01*
X125119000Y-99360849D01*
X125099547Y-99369699D01*
X125079499Y-99377114D01*
X125058855Y-99383093D01*
X125037616Y-99387638D01*
X125015782Y-99390747D01*
X124993352Y-99392422D01*
X124978068Y-99392741D01*
X124374875Y-99392741D01*
X124352052Y-99392023D01*
X124329832Y-99389870D01*
X124308215Y-99386283D01*
X124287201Y-99381260D01*
X124266791Y-99374802D01*
X124246983Y-99366909D01*
X124227778Y-99357580D01*
X124209176Y-99346817D01*
X124191178Y-99334619D01*
X124173782Y-99320985D01*
X124162520Y-99311099D01*
X124146378Y-99295327D01*
X124131823Y-99278952D01*
X124118856Y-99261973D01*
X124107477Y-99244392D01*
X124097686Y-99226208D01*
X124089482Y-99207420D01*
X124082867Y-99188030D01*
X124077839Y-99168036D01*
X124074399Y-99147440D01*
X124072546Y-99126240D01*
X124072193Y-99111772D01*
X124072193Y-98697050D01*
X124482573Y-98697050D01*
X124482573Y-99003640D01*
X124870804Y-99003640D01*
X124870804Y-98687930D01*
X124869098Y-98664881D01*
X124863980Y-98644099D01*
X124855450Y-98625583D01*
X124843507Y-98609335D01*
X124828152Y-98595355D01*
X124809385Y-98583641D01*
X124787206Y-98574194D01*
X124770524Y-98569156D01*
X124752326Y-98565126D01*
X124732611Y-98562103D01*
X124711379Y-98560088D01*
X124688631Y-98559080D01*
X124676689Y-98558954D01*
X124645262Y-98558413D01*
X124614494Y-98556790D01*
X124584384Y-98554084D01*
X124554932Y-98550296D01*
X124526138Y-98545426D01*
X124498003Y-98539473D01*
X124470525Y-98532439D01*
X124443706Y-98524322D01*
X124417545Y-98515122D01*
X124392042Y-98504841D01*
X124367198Y-98493477D01*
X124343011Y-98481031D01*
X124319483Y-98467502D01*
X124296613Y-98452892D01*
X124274401Y-98437199D01*
X124252847Y-98420424D01*
X124230971Y-98401652D01*
X124210506Y-98382141D01*
X124191453Y-98361890D01*
X124173811Y-98340899D01*
X124157580Y-98319169D01*
X124142761Y-98296699D01*
X124129353Y-98273490D01*
X124117357Y-98249541D01*
X124106772Y-98224853D01*
X124097598Y-98199424D01*
X124089835Y-98173257D01*
X124083484Y-98146349D01*
X124078544Y-98118702D01*
X124075016Y-98090316D01*
X124072899Y-98061189D01*
X124072193Y-98031324D01*
X124072193Y-97596191D01*
X124072987Y-97574101D01*
X124075369Y-97552614D01*
X124079338Y-97531730D01*
X124084896Y-97511449D01*
X124092041Y-97491771D01*
X124100773Y-97472696D01*
X124111094Y-97454224D01*
X124123002Y-97436355D01*
X124136498Y-97419089D01*
X124151582Y-97402426D01*
X124162520Y-97391653D01*
X124179514Y-97376752D01*
X124197110Y-97363317D01*
X124215310Y-97351348D01*
X124234113Y-97340844D01*
X124253518Y-97331806D01*
X124273527Y-97324234D01*
X124294139Y-97318127D01*
X124315354Y-97313486D01*
X124337172Y-97310310D01*
X124359593Y-97308600D01*
X124374875Y-97308274D01*
X124978068Y-97308274D01*
X125000894Y-97309011D01*
X125023126Y-97311221D01*
X125044762Y-97314904D01*
X125065802Y-97320061D01*
X125086248Y-97326690D01*
X125106097Y-97334793D01*
X125125352Y-97344370D01*
X125144011Y-97355419D01*
X125162074Y-97367942D01*
X125179542Y-97381938D01*
X125190857Y-97392087D01*
X125206999Y-97408278D01*
X125221554Y-97425095D01*
X125234521Y-97442537D01*
X125245900Y-97460606D01*
X125255691Y-97479300D01*
X125263895Y-97498621D01*
X125270510Y-97518567D01*
X125275538Y-97539140D01*
X125278978Y-97560338D01*
X125280831Y-97582162D01*
X125281184Y-97597060D01*
X125281184Y-98021770D01*
X124870804Y-98021770D01*
X124870804Y-97697375D01*
G37*
G36*
X126470009Y-97308996D02*
G01*
X126492240Y-97311160D01*
X126513876Y-97314767D01*
X126534917Y-97319816D01*
X126555362Y-97326309D01*
X126575212Y-97334244D01*
X126594466Y-97343621D01*
X126613125Y-97354442D01*
X126631189Y-97366705D01*
X126648657Y-97380411D01*
X126659971Y-97390350D01*
X126676114Y-97406285D01*
X126690668Y-97422823D01*
X126703635Y-97439964D01*
X126715014Y-97457709D01*
X126724805Y-97476056D01*
X126733009Y-97495006D01*
X126739625Y-97514559D01*
X126744653Y-97534716D01*
X126748093Y-97555475D01*
X126749945Y-97576838D01*
X126750298Y-97591414D01*
X126750298Y-98125559D01*
X126749591Y-98154731D01*
X126747469Y-98183187D01*
X126743932Y-98210927D01*
X126738980Y-98237952D01*
X126732614Y-98264260D01*
X126724833Y-98289853D01*
X126715637Y-98314730D01*
X126705026Y-98338891D01*
X126693001Y-98362336D01*
X126679561Y-98385065D01*
X126664706Y-98407079D01*
X126648436Y-98428376D01*
X126630752Y-98448958D01*
X126611653Y-98468824D01*
X126591139Y-98487974D01*
X126569210Y-98506408D01*
X126547656Y-98522868D01*
X126525444Y-98538265D01*
X126502574Y-98552601D01*
X126479046Y-98565875D01*
X126454860Y-98578087D01*
X126430015Y-98589237D01*
X126404512Y-98599325D01*
X126378351Y-98608352D01*
X126351532Y-98616316D01*
X126324055Y-98623218D01*
X126295919Y-98629059D01*
X126267125Y-98633837D01*
X126237673Y-98637554D01*
X126207563Y-98640209D01*
X126176795Y-98641802D01*
X126145369Y-98642333D01*
X125951253Y-98642333D01*
X125951253Y-99392741D01*
X125540873Y-99392741D01*
X125540873Y-97697375D01*
X125951253Y-97697375D01*
X125951253Y-98253232D01*
X126145369Y-98253232D01*
X126168927Y-98252722D01*
X126190966Y-98251190D01*
X126211485Y-98248637D01*
X126230484Y-98245063D01*
X126247963Y-98240467D01*
X126271332Y-98231660D01*
X126291281Y-98220554D01*
X126307810Y-98207151D01*
X126320920Y-98191450D01*
X126330609Y-98173451D01*
X126336879Y-98153155D01*
X126339729Y-98130561D01*
X126339919Y-98122519D01*
X126339919Y-97697375D01*
X125951253Y-97697375D01*
X125540873Y-97697375D01*
X125540873Y-97308274D01*
X126447182Y-97308274D01*
X126470009Y-97308996D01*
G37*
G36*
X127920205Y-98586747D02*
G01*
X127000434Y-98586747D01*
X127000434Y-98222400D01*
X127920205Y-98222400D01*
X127920205Y-98586747D01*
G37*
G36*
X129160028Y-99003640D02*
G01*
X129517861Y-99003640D01*
X129517861Y-99392741D01*
X128393118Y-99392741D01*
X128393118Y-99003640D01*
X128750951Y-99003640D01*
X128750951Y-97697375D01*
X128393118Y-97697375D01*
X128393118Y-97308274D01*
X128856912Y-97308274D01*
X128879960Y-97309000D01*
X128902367Y-97311175D01*
X128924133Y-97314801D01*
X128945257Y-97319877D01*
X128965741Y-97326404D01*
X128985583Y-97334381D01*
X129004784Y-97343808D01*
X129023343Y-97354686D01*
X129041262Y-97367014D01*
X129058539Y-97380793D01*
X129069701Y-97390784D01*
X129085843Y-97406723D01*
X129100398Y-97423273D01*
X129113365Y-97440433D01*
X129124744Y-97458204D01*
X129134535Y-97476585D01*
X129142739Y-97495578D01*
X129149354Y-97515181D01*
X129154382Y-97535394D01*
X129157823Y-97556219D01*
X129159675Y-97577654D01*
X129160028Y-97592283D01*
X129160028Y-99003640D01*
G37*
G36*
X130355122Y-99003640D02*
G01*
X131069920Y-99003640D01*
X131069920Y-99392741D01*
X129944742Y-99392741D01*
X129944742Y-98685759D01*
X129945358Y-98656394D01*
X129947206Y-98627792D01*
X129950284Y-98599953D01*
X129954595Y-98572878D01*
X129960137Y-98546566D01*
X129966910Y-98521017D01*
X129974915Y-98496232D01*
X129984152Y-98472210D01*
X129994620Y-98448951D01*
X130006320Y-98426456D01*
X130019251Y-98404724D01*
X130033414Y-98383756D01*
X130048808Y-98363551D01*
X130065434Y-98344109D01*
X130083291Y-98325430D01*
X130102380Y-98307515D01*
X130121980Y-98290845D01*
X130142346Y-98275251D01*
X130163479Y-98260732D01*
X130185379Y-98247288D01*
X130208045Y-98234920D01*
X130231479Y-98223628D01*
X130255679Y-98213411D01*
X130280646Y-98204269D01*
X130306379Y-98196203D01*
X130332879Y-98189212D01*
X130360146Y-98183297D01*
X130388180Y-98178458D01*
X130416981Y-98174693D01*
X130446548Y-98172005D01*
X130476882Y-98170391D01*
X130507983Y-98169854D01*
X130527633Y-98169419D01*
X130545764Y-98168117D01*
X130566289Y-98165267D01*
X130584440Y-98161060D01*
X130603086Y-98154220D01*
X130618313Y-98145426D01*
X130622628Y-98142061D01*
X130635173Y-98129099D01*
X130645122Y-98112687D01*
X130651430Y-98096374D01*
X130655936Y-98077666D01*
X130658639Y-98056561D01*
X130659505Y-98037952D01*
X130659541Y-98033061D01*
X130659541Y-97697375D01*
X130355122Y-97697375D01*
X130355122Y-98021770D01*
X129944742Y-98021770D01*
X129944742Y-97597060D01*
X129945536Y-97574818D01*
X129947918Y-97553203D01*
X129951887Y-97532213D01*
X129957445Y-97511849D01*
X129964590Y-97492111D01*
X129973322Y-97472999D01*
X129983643Y-97454514D01*
X129995551Y-97436654D01*
X130009047Y-97419420D01*
X130024131Y-97402812D01*
X130035069Y-97392087D01*
X130052141Y-97377109D01*
X130069807Y-97363604D01*
X130088069Y-97351572D01*
X130106926Y-97341014D01*
X130126379Y-97331929D01*
X130146427Y-97324317D01*
X130167071Y-97318178D01*
X130188310Y-97313513D01*
X130210145Y-97310321D01*
X130232575Y-97308602D01*
X130247859Y-97308274D01*
X130765501Y-97308274D01*
X130788557Y-97309007D01*
X130810987Y-97311206D01*
X130832791Y-97314870D01*
X130853969Y-97319999D01*
X130874521Y-97326595D01*
X130894447Y-97334656D01*
X130913747Y-97344183D01*
X130932421Y-97355175D01*
X130950469Y-97367633D01*
X130967892Y-97381556D01*
X130979159Y-97391653D01*
X130995379Y-97407914D01*
X131010003Y-97424777D01*
X131023033Y-97442244D01*
X131034466Y-97460314D01*
X131044305Y-97478987D01*
X131052548Y-97498263D01*
X131059195Y-97518142D01*
X131064247Y-97538624D01*
X131067704Y-97559709D01*
X131069565Y-97581397D01*
X131069920Y-97596191D01*
X131069920Y-98031324D01*
X131069309Y-98061334D01*
X131067477Y-98090567D01*
X131064424Y-98119023D01*
X131060149Y-98146702D01*
X131054653Y-98173604D01*
X131047935Y-98199730D01*
X131039996Y-98225078D01*
X131030836Y-98249650D01*
X131020455Y-98273444D01*
X131008852Y-98296462D01*
X130996027Y-98318703D01*
X130981982Y-98340167D01*
X130966714Y-98360853D01*
X130950226Y-98380763D01*
X130932516Y-98399896D01*
X130913585Y-98418253D01*
X130893935Y-98435291D01*
X130873524Y-98451229D01*
X130852354Y-98466069D01*
X130830423Y-98479809D01*
X130807733Y-98492451D01*
X130784283Y-98503993D01*
X130760073Y-98514435D01*
X130735103Y-98523779D01*
X130709372Y-98532023D01*
X130682882Y-98539168D01*
X130655632Y-98545214D01*
X130627622Y-98550160D01*
X130598852Y-98554008D01*
X130569322Y-98556756D01*
X130539032Y-98558404D01*
X130507983Y-98558954D01*
X130488027Y-98559361D01*
X130469632Y-98560583D01*
X130448832Y-98563254D01*
X130430472Y-98567198D01*
X130411657Y-98573610D01*
X130396355Y-98581855D01*
X130392034Y-98585010D01*
X130379490Y-98597229D01*
X130369541Y-98612715D01*
X130362187Y-98631468D01*
X130358042Y-98649591D01*
X130355699Y-98669983D01*
X130355122Y-98687930D01*
X130355122Y-99003640D01*
G37*
G36*
X117060517Y-122483048D02*
G01*
X117073152Y-122484291D01*
X117085447Y-122486363D01*
X117097403Y-122489263D01*
X117109020Y-122492991D01*
X117120298Y-122497549D01*
X117131237Y-122502935D01*
X117141836Y-122509149D01*
X117152097Y-122516193D01*
X117162018Y-122524064D01*
X117168443Y-122529773D01*
X117177522Y-122538923D01*
X117185708Y-122548420D01*
X117193001Y-122558265D01*
X117199401Y-122568458D01*
X117204908Y-122578999D01*
X117209522Y-122589888D01*
X117213243Y-122601124D01*
X117216071Y-122612708D01*
X117218006Y-122624640D01*
X117219048Y-122636920D01*
X117219246Y-122645300D01*
X117219246Y-122891008D01*
X117218951Y-122904289D01*
X117218067Y-122917264D01*
X117216593Y-122929934D01*
X117214529Y-122942299D01*
X117211876Y-122954358D01*
X117208633Y-122966113D01*
X117204800Y-122977561D01*
X117200378Y-122988705D01*
X117195366Y-122999543D01*
X117189765Y-123010076D01*
X117183574Y-123020304D01*
X117176794Y-123030226D01*
X117169423Y-123039843D01*
X117161463Y-123049155D01*
X117152914Y-123058162D01*
X117143775Y-123066863D01*
X117156345Y-123075600D01*
X117168104Y-123084776D01*
X117179052Y-123094392D01*
X117189189Y-123104446D01*
X117198515Y-123114938D01*
X117207030Y-123125870D01*
X117214734Y-123137241D01*
X117221627Y-123149050D01*
X117227710Y-123161299D01*
X117232981Y-123173986D01*
X117237441Y-123187112D01*
X117241090Y-123200677D01*
X117243929Y-123214681D01*
X117245956Y-123229124D01*
X117247173Y-123244006D01*
X117247578Y-123259326D01*
X117247578Y-123366304D01*
X117247180Y-123382650D01*
X117245987Y-123398590D01*
X117243998Y-123414126D01*
X117241213Y-123429258D01*
X117237632Y-123443985D01*
X117233256Y-123458308D01*
X117228084Y-123472226D01*
X117222116Y-123485739D01*
X117215352Y-123498848D01*
X117207793Y-123511553D01*
X117199438Y-123523853D01*
X117190288Y-123535748D01*
X117180342Y-123547239D01*
X117169600Y-123558325D01*
X117158062Y-123569007D01*
X117145729Y-123579284D01*
X117133606Y-123588453D01*
X117121114Y-123597030D01*
X117108251Y-123605016D01*
X117095018Y-123612410D01*
X117081415Y-123619212D01*
X117067441Y-123625423D01*
X117053098Y-123631043D01*
X117038384Y-123636071D01*
X117023300Y-123640507D01*
X117007846Y-123644352D01*
X116992022Y-123647605D01*
X116975827Y-123650267D01*
X116959263Y-123652338D01*
X116942328Y-123653816D01*
X116925023Y-123654704D01*
X116907348Y-123655000D01*
X116567362Y-123655000D01*
X116567362Y-123186053D01*
X116798171Y-123186053D01*
X116798171Y-123436158D01*
X116907348Y-123436158D01*
X116920598Y-123435872D01*
X116932993Y-123435013D01*
X116944534Y-123433582D01*
X116955219Y-123431578D01*
X116965050Y-123429002D01*
X116978194Y-123424065D01*
X116989413Y-123417840D01*
X116998710Y-123410326D01*
X117006083Y-123401525D01*
X117011533Y-123391436D01*
X117015059Y-123380058D01*
X117016662Y-123367393D01*
X117016769Y-123362885D01*
X117016769Y-123258593D01*
X117015893Y-123247462D01*
X117013265Y-123236966D01*
X117008886Y-123227106D01*
X117002755Y-123217881D01*
X116994873Y-123209292D01*
X116991856Y-123206570D01*
X116983944Y-123200659D01*
X116973915Y-123194889D01*
X116963302Y-123190561D01*
X116952105Y-123187676D01*
X116942328Y-123186374D01*
X116934215Y-123186053D01*
X116798171Y-123186053D01*
X116567362Y-123186053D01*
X116567362Y-122701475D01*
X116798171Y-122701475D01*
X116798171Y-122967212D01*
X116904661Y-122967212D01*
X116914974Y-122966675D01*
X116924845Y-122965065D01*
X116934274Y-122962382D01*
X116945008Y-122957745D01*
X116953467Y-122952700D01*
X116961485Y-122946582D01*
X116963035Y-122945230D01*
X116970353Y-122937770D01*
X116976430Y-122929893D01*
X116982086Y-122919890D01*
X116985956Y-122909285D01*
X116988040Y-122898079D01*
X116988436Y-122890275D01*
X116988436Y-122701475D01*
X116798171Y-122701475D01*
X116567362Y-122701475D01*
X116567362Y-122482634D01*
X117047543Y-122482634D01*
X117060517Y-122483048D01*
G37*
G36*
X117912301Y-122483042D02*
G01*
X117924804Y-122484265D01*
X117936973Y-122486305D01*
X117948807Y-122489160D01*
X117960306Y-122492830D01*
X117971470Y-122497317D01*
X117982299Y-122502619D01*
X117992794Y-122508737D01*
X118002953Y-122515671D01*
X118012778Y-122523420D01*
X118019141Y-122529040D01*
X118028220Y-122538048D01*
X118036406Y-122547395D01*
X118043699Y-122557082D01*
X118050099Y-122567108D01*
X118055606Y-122577472D01*
X118060220Y-122588176D01*
X118063941Y-122599219D01*
X118066769Y-122610602D01*
X118068704Y-122622323D01*
X118069745Y-122634384D01*
X118069944Y-122642613D01*
X118069944Y-123495020D01*
X118069497Y-123507307D01*
X118068158Y-123519255D01*
X118065925Y-123530863D01*
X118062800Y-123542133D01*
X118058781Y-123553063D01*
X118053870Y-123563654D01*
X118048065Y-123573905D01*
X118041367Y-123583818D01*
X118033777Y-123593391D01*
X118025293Y-123602626D01*
X118019141Y-123608593D01*
X118009540Y-123616887D01*
X117999604Y-123624364D01*
X117989333Y-123631026D01*
X117978727Y-123636872D01*
X117967786Y-123641902D01*
X117956510Y-123646117D01*
X117944900Y-123649516D01*
X117932954Y-123652099D01*
X117920674Y-123653867D01*
X117908059Y-123654818D01*
X117899462Y-123655000D01*
X117560209Y-123655000D01*
X117547370Y-123654592D01*
X117534867Y-123653368D01*
X117522698Y-123651329D01*
X117510864Y-123648474D01*
X117499365Y-123644803D01*
X117488201Y-123640316D01*
X117477372Y-123635014D01*
X117466878Y-123628896D01*
X117456718Y-123621962D01*
X117446894Y-123614213D01*
X117440530Y-123608593D01*
X117431451Y-123599585D01*
X117423265Y-123590238D01*
X117415972Y-123580551D01*
X117409572Y-123570526D01*
X117404065Y-123560161D01*
X117399451Y-123549457D01*
X117395731Y-123538414D01*
X117392903Y-123527032D01*
X117390968Y-123515310D01*
X117389926Y-123503249D01*
X117389727Y-123495020D01*
X117389727Y-122701475D01*
X117620537Y-122701475D01*
X117620537Y-123436158D01*
X117839134Y-123436158D01*
X117839134Y-122701475D01*
X117620537Y-122701475D01*
X117389727Y-122701475D01*
X117389727Y-122642613D01*
X117390174Y-122630326D01*
X117391514Y-122618378D01*
X117393746Y-122606770D01*
X117396872Y-122595501D01*
X117400890Y-122584571D01*
X117405802Y-122573980D01*
X117411606Y-122563728D01*
X117418304Y-122553815D01*
X117425895Y-122544242D01*
X117434378Y-122535008D01*
X117440530Y-122529040D01*
X117450131Y-122520747D01*
X117460068Y-122513269D01*
X117470339Y-122506607D01*
X117480945Y-122500761D01*
X117491885Y-122495731D01*
X117503161Y-122491516D01*
X117514772Y-122488117D01*
X117526717Y-122485534D01*
X117538998Y-122483767D01*
X117551613Y-122482815D01*
X117560209Y-122482634D01*
X117899462Y-122482634D01*
X117912301Y-122483042D01*
G37*
G36*
X118756404Y-122483042D02*
G01*
X118768908Y-122484265D01*
X118781076Y-122486305D01*
X118792910Y-122489160D01*
X118804409Y-122492830D01*
X118815573Y-122497317D01*
X118826403Y-122502619D01*
X118836897Y-122508737D01*
X118847056Y-122515671D01*
X118856881Y-122523420D01*
X118863245Y-122529040D01*
X118872324Y-122538048D01*
X118880509Y-122547395D01*
X118887802Y-122557082D01*
X118894202Y-122567108D01*
X118899709Y-122577472D01*
X118904323Y-122588176D01*
X118908044Y-122599219D01*
X118910872Y-122610602D01*
X118912807Y-122622323D01*
X118913849Y-122634384D01*
X118914047Y-122642613D01*
X118914047Y-123495020D01*
X118913601Y-123507307D01*
X118912261Y-123519255D01*
X118910029Y-123530863D01*
X118906903Y-123542133D01*
X118902884Y-123553063D01*
X118897973Y-123563654D01*
X118892168Y-123573905D01*
X118885471Y-123583818D01*
X118877880Y-123593391D01*
X118869396Y-123602626D01*
X118863245Y-123608593D01*
X118853643Y-123616887D01*
X118843707Y-123624364D01*
X118833436Y-123631026D01*
X118822830Y-123636872D01*
X118811889Y-123641902D01*
X118800613Y-123646117D01*
X118789003Y-123649516D01*
X118777057Y-123652099D01*
X118764777Y-123653867D01*
X118752162Y-123654818D01*
X118743566Y-123655000D01*
X118404312Y-123655000D01*
X118391474Y-123654592D01*
X118378970Y-123653368D01*
X118366801Y-123651329D01*
X118354968Y-123648474D01*
X118343469Y-123644803D01*
X118332305Y-123640316D01*
X118321475Y-123635014D01*
X118310981Y-123628896D01*
X118300822Y-123621962D01*
X118290997Y-123614213D01*
X118284633Y-123608593D01*
X118275554Y-123599585D01*
X118267368Y-123590238D01*
X118260075Y-123580551D01*
X118253675Y-123570526D01*
X118248169Y-123560161D01*
X118243555Y-123549457D01*
X118239834Y-123538414D01*
X118237006Y-123527032D01*
X118235071Y-123515310D01*
X118234029Y-123503249D01*
X118233831Y-123495020D01*
X118233831Y-122701475D01*
X118464640Y-122701475D01*
X118464640Y-123436158D01*
X118683238Y-123436158D01*
X118683238Y-122701475D01*
X118464640Y-122701475D01*
X118233831Y-122701475D01*
X118233831Y-122642613D01*
X118234277Y-122630326D01*
X118235617Y-122618378D01*
X118237849Y-122606770D01*
X118240975Y-122595501D01*
X118244993Y-122584571D01*
X118249905Y-122573980D01*
X118255710Y-122563728D01*
X118262407Y-122553815D01*
X118269998Y-122544242D01*
X118278481Y-122535008D01*
X118284633Y-122529040D01*
X118294235Y-122520747D01*
X118304171Y-122513269D01*
X118314442Y-122506607D01*
X118325048Y-122500761D01*
X118335989Y-122495731D01*
X118347264Y-122491516D01*
X118358875Y-122488117D01*
X118370820Y-122485534D01*
X118383101Y-122483767D01*
X118395716Y-122482815D01*
X118404312Y-122482634D01*
X118743566Y-122482634D01*
X118756404Y-122483042D01*
G37*
G36*
X119241577Y-122701475D02*
G01*
X119016141Y-122701475D01*
X119016141Y-122482634D01*
X119696357Y-122482634D01*
X119696357Y-122701475D01*
X119471654Y-122701475D01*
X119471654Y-123655000D01*
X119241577Y-123655000D01*
X119241577Y-122701475D01*
G37*
G36*
X134576844Y-122483040D02*
G01*
X134589348Y-122484257D01*
X134601516Y-122486285D01*
X134613350Y-122489125D01*
X134624849Y-122492777D01*
X134636013Y-122497240D01*
X134646843Y-122502514D01*
X134657337Y-122508600D01*
X134667496Y-122515497D01*
X134677321Y-122523206D01*
X134683685Y-122528796D01*
X134692764Y-122537756D01*
X134700950Y-122547051D01*
X134708242Y-122556681D01*
X134714642Y-122566646D01*
X134720149Y-122576945D01*
X134724763Y-122587580D01*
X134728484Y-122598549D01*
X134731312Y-122609854D01*
X134733247Y-122621493D01*
X134734289Y-122633467D01*
X134734487Y-122641636D01*
X134734487Y-122941810D01*
X134734141Y-122955918D01*
X134733102Y-122969666D01*
X134731370Y-122983052D01*
X134728946Y-122996078D01*
X134725829Y-123008743D01*
X134722019Y-123021048D01*
X134717517Y-123032992D01*
X134712322Y-123044576D01*
X134706435Y-123055798D01*
X134699854Y-123066660D01*
X134692581Y-123077162D01*
X134684616Y-123087303D01*
X134675958Y-123097083D01*
X134666607Y-123106503D01*
X134656563Y-123115562D01*
X134645827Y-123124260D01*
X134656563Y-123133088D01*
X134666607Y-123142292D01*
X134675958Y-123151872D01*
X134684616Y-123161827D01*
X134692581Y-123172159D01*
X134699854Y-123182867D01*
X134706435Y-123193950D01*
X134712322Y-123205409D01*
X134717517Y-123217245D01*
X134722019Y-123229456D01*
X134725829Y-123242043D01*
X134728946Y-123255006D01*
X134731370Y-123268345D01*
X134733102Y-123282060D01*
X134734141Y-123296150D01*
X134734487Y-123310617D01*
X134734487Y-123655000D01*
X134503678Y-123655000D01*
X134503678Y-123309884D01*
X134503069Y-123300036D01*
X134500734Y-123288816D01*
X134496647Y-123278249D01*
X134490808Y-123268334D01*
X134484604Y-123260570D01*
X134478765Y-123254685D01*
X134470853Y-123248423D01*
X134462536Y-123243222D01*
X134452020Y-123238382D01*
X134440921Y-123235071D01*
X134431225Y-123233479D01*
X134421124Y-123232948D01*
X134285080Y-123232948D01*
X134285080Y-123655000D01*
X134054271Y-123655000D01*
X134054271Y-122701475D01*
X134285080Y-122701475D01*
X134285080Y-123014106D01*
X134421124Y-123014106D01*
X134431225Y-123013582D01*
X134440921Y-123012007D01*
X134452020Y-123008733D01*
X134462536Y-123003947D01*
X134470853Y-122998805D01*
X134478765Y-122992613D01*
X134485942Y-122985804D01*
X134492949Y-122976989D01*
X134498204Y-122967469D01*
X134501707Y-122957245D01*
X134503459Y-122946317D01*
X134503678Y-122940589D01*
X134503678Y-122701475D01*
X134285080Y-122701475D01*
X134054271Y-122701475D01*
X134054271Y-122482634D01*
X134564006Y-122482634D01*
X134576844Y-122483040D01*
G37*
G36*
X135126253Y-123436158D02*
G01*
X135510935Y-123436158D01*
X135510935Y-123655000D01*
X134895443Y-123655000D01*
X134895443Y-122482634D01*
X135510935Y-122482634D01*
X135510935Y-122701475D01*
X135126253Y-122701475D01*
X135126253Y-122967212D01*
X135446455Y-122967212D01*
X135446455Y-123186053D01*
X135126253Y-123186053D01*
X135126253Y-123436158D01*
G37*
G36*
X136055352Y-122701475D02*
G01*
X135836999Y-122701475D01*
X135836999Y-122890275D01*
X135837959Y-122904025D01*
X135840838Y-122916422D01*
X135845635Y-122927466D01*
X135852352Y-122937158D01*
X135860988Y-122945498D01*
X135871543Y-122952486D01*
X135884018Y-122958121D01*
X135893400Y-122961126D01*
X135903635Y-122963530D01*
X135914724Y-122965333D01*
X135926665Y-122966535D01*
X135939459Y-122967137D01*
X135946176Y-122967212D01*
X135963851Y-122967509D01*
X135981156Y-122968402D01*
X135998091Y-122969891D01*
X136014655Y-122971974D01*
X136030850Y-122974653D01*
X136046674Y-122977928D01*
X136062128Y-122981798D01*
X136077212Y-122986263D01*
X136091926Y-122991323D01*
X136106269Y-122996979D01*
X136120243Y-123003230D01*
X136133846Y-123010076D01*
X136147079Y-123017518D01*
X136159942Y-123025555D01*
X136172434Y-123034188D01*
X136184557Y-123043415D01*
X136196861Y-123053725D01*
X136208371Y-123064443D01*
X136219087Y-123075570D01*
X136229009Y-123087104D01*
X136238138Y-123099047D01*
X136246472Y-123111399D01*
X136254013Y-123124159D01*
X136260761Y-123137327D01*
X136266714Y-123150903D01*
X136271874Y-123164888D01*
X136276240Y-123179281D01*
X136279812Y-123194083D01*
X136282590Y-123209293D01*
X136284574Y-123224911D01*
X136285765Y-123240937D01*
X136286162Y-123257372D01*
X136286162Y-123496486D01*
X136285715Y-123508681D01*
X136284376Y-123520537D01*
X136282143Y-123532054D01*
X136279018Y-123543232D01*
X136274999Y-123554070D01*
X136270088Y-123564570D01*
X136264283Y-123574730D01*
X136257586Y-123584551D01*
X136249995Y-123594033D01*
X136241511Y-123603175D01*
X136235359Y-123609082D01*
X136225758Y-123617288D01*
X136215822Y-123624687D01*
X136205551Y-123631278D01*
X136194945Y-123637063D01*
X136184004Y-123642040D01*
X136172728Y-123646211D01*
X136161118Y-123649574D01*
X136149172Y-123652130D01*
X136136892Y-123653878D01*
X136124277Y-123654820D01*
X136115680Y-123655000D01*
X135776427Y-123655000D01*
X135763591Y-123654596D01*
X135751094Y-123653385D01*
X135738936Y-123651367D01*
X135727117Y-123648542D01*
X135715637Y-123644910D01*
X135704497Y-123640471D01*
X135693695Y-123635224D01*
X135683233Y-123629171D01*
X135673110Y-123622310D01*
X135663326Y-123614642D01*
X135656992Y-123609082D01*
X135647913Y-123600211D01*
X135639727Y-123591001D01*
X135632435Y-123581452D01*
X135626035Y-123571564D01*
X135620528Y-123561336D01*
X135615914Y-123550770D01*
X135612193Y-123539864D01*
X135609365Y-123528619D01*
X135607430Y-123517035D01*
X135606388Y-123505112D01*
X135606190Y-123496974D01*
X135606190Y-123263722D01*
X135836999Y-123263722D01*
X135836999Y-123436158D01*
X136055352Y-123436158D01*
X136055352Y-123258593D01*
X136054393Y-123245630D01*
X136051514Y-123233941D01*
X136046716Y-123223528D01*
X136040000Y-123214389D01*
X136031363Y-123206526D01*
X136020808Y-123199938D01*
X136008334Y-123194625D01*
X135998952Y-123191791D01*
X135988716Y-123189524D01*
X135977628Y-123187824D01*
X135965687Y-123186691D01*
X135952893Y-123186124D01*
X135946176Y-123186053D01*
X135928501Y-123185749D01*
X135911196Y-123184836D01*
X135894261Y-123183314D01*
X135877696Y-123181184D01*
X135861502Y-123178444D01*
X135845678Y-123175097D01*
X135830224Y-123171140D01*
X135815140Y-123166575D01*
X135800426Y-123161401D01*
X135786082Y-123155618D01*
X135772109Y-123149227D01*
X135758506Y-123142227D01*
X135745273Y-123134618D01*
X135732410Y-123126401D01*
X135719917Y-123117575D01*
X135707795Y-123108140D01*
X135695491Y-123097582D01*
X135683981Y-123086608D01*
X135673265Y-123075219D01*
X135663343Y-123063413D01*
X135654214Y-123051191D01*
X135645879Y-123038553D01*
X135638338Y-123025500D01*
X135631591Y-123012030D01*
X135625638Y-122998145D01*
X135620478Y-122983843D01*
X135616112Y-122969126D01*
X135612540Y-122953992D01*
X135609762Y-122938443D01*
X135607777Y-122922477D01*
X135606587Y-122906096D01*
X135606190Y-122889298D01*
X135606190Y-122644567D01*
X135606636Y-122632143D01*
X135607976Y-122620058D01*
X135610208Y-122608312D01*
X135613334Y-122596905D01*
X135617353Y-122585838D01*
X135622264Y-122575109D01*
X135628069Y-122564720D01*
X135634766Y-122554670D01*
X135642357Y-122544959D01*
X135650841Y-122535588D01*
X135656992Y-122529528D01*
X135666550Y-122521148D01*
X135676447Y-122513592D01*
X135686683Y-122506860D01*
X135697258Y-122500952D01*
X135708172Y-122495869D01*
X135719426Y-122491610D01*
X135731019Y-122488175D01*
X135742951Y-122485565D01*
X135755222Y-122483779D01*
X135767832Y-122482817D01*
X135776427Y-122482634D01*
X136115680Y-122482634D01*
X136128519Y-122483048D01*
X136141023Y-122484291D01*
X136153191Y-122486363D01*
X136165025Y-122489263D01*
X136176524Y-122492991D01*
X136187688Y-122497549D01*
X136198517Y-122502935D01*
X136209012Y-122509149D01*
X136219171Y-122516193D01*
X136228996Y-122524064D01*
X136235359Y-122529773D01*
X136244438Y-122538879D01*
X136252624Y-122548337D01*
X136259917Y-122558147D01*
X136266317Y-122568310D01*
X136271824Y-122578824D01*
X136276438Y-122589690D01*
X136280159Y-122600909D01*
X136282987Y-122612479D01*
X136284922Y-122624402D01*
X136285964Y-122636677D01*
X136286162Y-122645055D01*
X136286162Y-122883925D01*
X136055352Y-122883925D01*
X136055352Y-122701475D01*
G37*
G36*
X136663029Y-123436158D02*
G01*
X137047711Y-123436158D01*
X137047711Y-123655000D01*
X136432219Y-123655000D01*
X136432219Y-122482634D01*
X137047711Y-122482634D01*
X137047711Y-122701475D01*
X136663029Y-122701475D01*
X136663029Y-122967212D01*
X136983231Y-122967212D01*
X136983231Y-123186053D01*
X136663029Y-123186053D01*
X136663029Y-123436158D01*
G37*
G36*
X137314669Y-122701475D02*
G01*
X137089232Y-122701475D01*
X137089232Y-122482634D01*
X137769449Y-122482634D01*
X137769449Y-122701475D01*
X137544745Y-122701475D01*
X137544745Y-123655000D01*
X137314669Y-123655000D01*
X137314669Y-122701475D01*
G37*
G36*
X125704536Y-123436158D02*
G01*
X125922889Y-123436158D01*
X125922889Y-122482634D01*
X126153699Y-122482634D01*
X126153699Y-123495020D01*
X126153252Y-123507307D01*
X126151913Y-123519255D01*
X126149680Y-123530863D01*
X126146555Y-123542133D01*
X126142536Y-123553063D01*
X126137625Y-123563654D01*
X126131820Y-123573905D01*
X126125122Y-123583818D01*
X126117532Y-123593391D01*
X126109048Y-123602626D01*
X126102896Y-123608593D01*
X126093295Y-123616887D01*
X126083359Y-123624364D01*
X126073088Y-123631026D01*
X126062482Y-123636872D01*
X126051541Y-123641902D01*
X126040265Y-123646117D01*
X126028655Y-123649516D01*
X126016709Y-123652099D01*
X126004429Y-123653867D01*
X125991814Y-123654818D01*
X125983217Y-123655000D01*
X125643964Y-123655000D01*
X125631128Y-123654592D01*
X125618631Y-123653368D01*
X125606473Y-123651329D01*
X125594654Y-123648474D01*
X125583174Y-123644803D01*
X125572034Y-123640316D01*
X125561232Y-123635014D01*
X125550770Y-123628896D01*
X125540647Y-123621962D01*
X125530863Y-123614213D01*
X125524529Y-123608593D01*
X125515450Y-123599585D01*
X125507264Y-123590238D01*
X125499971Y-123580551D01*
X125493572Y-123570526D01*
X125488065Y-123560161D01*
X125483451Y-123549457D01*
X125479730Y-123538414D01*
X125476902Y-123527032D01*
X125474967Y-123515310D01*
X125473925Y-123503249D01*
X125473727Y-123495020D01*
X125473727Y-122482634D01*
X125704536Y-122482634D01*
X125704536Y-123436158D01*
G37*
G36*
X127021982Y-123655000D02*
G01*
X126787753Y-123655000D01*
X126742324Y-123420526D01*
X126545220Y-123420526D01*
X126498570Y-123655000D01*
X126264829Y-123655000D01*
X126351998Y-123201685D01*
X126586986Y-123201685D01*
X126699826Y-123201685D01*
X126643406Y-122703674D01*
X126586986Y-123201685D01*
X126351998Y-123201685D01*
X126490266Y-122482634D01*
X126797279Y-122482634D01*
X127021982Y-123655000D01*
G37*
G36*
X127635902Y-122483040D02*
G01*
X127648406Y-122484257D01*
X127660575Y-122486285D01*
X127672409Y-122489125D01*
X127683908Y-122492777D01*
X127695072Y-122497240D01*
X127705901Y-122502514D01*
X127716395Y-122508600D01*
X127726555Y-122515497D01*
X127736379Y-122523206D01*
X127742743Y-122528796D01*
X127751822Y-122537756D01*
X127760008Y-122547051D01*
X127767301Y-122556681D01*
X127773701Y-122566646D01*
X127779208Y-122576945D01*
X127783821Y-122587580D01*
X127787542Y-122598549D01*
X127790370Y-122609854D01*
X127792305Y-122621493D01*
X127793347Y-122633467D01*
X127793545Y-122641636D01*
X127793545Y-122941810D01*
X127793199Y-122955918D01*
X127792160Y-122969666D01*
X127790428Y-122983052D01*
X127788004Y-122996078D01*
X127784887Y-123008743D01*
X127781078Y-123021048D01*
X127776575Y-123032992D01*
X127771380Y-123044576D01*
X127765493Y-123055798D01*
X127758912Y-123066660D01*
X127751640Y-123077162D01*
X127743674Y-123087303D01*
X127735016Y-123097083D01*
X127725665Y-123106503D01*
X127715621Y-123115562D01*
X127704885Y-123124260D01*
X127715621Y-123133088D01*
X127725665Y-123142292D01*
X127735016Y-123151872D01*
X127743674Y-123161827D01*
X127751640Y-123172159D01*
X127758912Y-123182867D01*
X127765493Y-123193950D01*
X127771380Y-123205409D01*
X127776575Y-123217245D01*
X127781078Y-123229456D01*
X127784887Y-123242043D01*
X127788004Y-123255006D01*
X127790428Y-123268345D01*
X127792160Y-123282060D01*
X127793199Y-123296150D01*
X127793545Y-123310617D01*
X127793545Y-123655000D01*
X127562736Y-123655000D01*
X127562736Y-123309884D01*
X127562128Y-123300036D01*
X127559792Y-123288816D01*
X127555705Y-123278249D01*
X127549866Y-123268334D01*
X127543662Y-123260570D01*
X127537823Y-123254685D01*
X127529911Y-123248423D01*
X127521594Y-123243222D01*
X127511079Y-123238382D01*
X127499979Y-123235071D01*
X127490283Y-123233479D01*
X127480182Y-123232948D01*
X127344139Y-123232948D01*
X127344139Y-123655000D01*
X127113329Y-123655000D01*
X127113329Y-122701475D01*
X127344139Y-122701475D01*
X127344139Y-123014106D01*
X127480182Y-123014106D01*
X127490283Y-123013582D01*
X127499979Y-123012007D01*
X127511079Y-123008733D01*
X127521594Y-123003947D01*
X127529911Y-122998805D01*
X127537823Y-122992613D01*
X127545000Y-122985804D01*
X127552007Y-122976989D01*
X127557262Y-122967469D01*
X127560765Y-122957245D01*
X127562517Y-122946317D01*
X127562736Y-122940589D01*
X127562736Y-122701475D01*
X127344139Y-122701475D01*
X127113329Y-122701475D01*
X127113329Y-122482634D01*
X127623064Y-122482634D01*
X127635902Y-122483040D01*
G37*
G36*
X128107153Y-122701475D02*
G01*
X127881717Y-122701475D01*
X127881717Y-122482634D01*
X128561933Y-122482634D01*
X128561933Y-122701475D01*
X128337230Y-122701475D01*
X128337230Y-123655000D01*
X128107153Y-123655000D01*
X128107153Y-122701475D01*
G37*
D11*
%TO.C,Jr1*%
X121930000Y-126975000D02*
X132090000Y-126975000D01*
X132090000Y-126975000D02*
X132090000Y-124435000D01*
X132090000Y-124435000D02*
X121930000Y-124435000D01*
X121930000Y-124435000D02*
X121930000Y-126975000D01*
%TO.C,DX*%
X139827000Y-114300000D02*
G75*
G03*
X139827000Y-114300000I-2032000J0D01*
G01*
D12*
%TO.C,R1*%
X127407936Y-116740000D02*
X127862064Y-116740000D01*
X127407936Y-118210000D02*
X127862064Y-118210000D01*
%TO.C,SW2*%
X120180000Y-127300000D02*
X116040000Y-127300000D01*
X120180000Y-127000000D02*
X120180000Y-127300000D01*
X120180000Y-124160000D02*
X120180000Y-124460000D01*
X116040000Y-127300000D02*
X116040000Y-127000000D01*
X116040000Y-124460000D02*
X116040000Y-124160000D01*
X116040000Y-124160000D02*
X120180000Y-124160000D01*
%TO.C,R3*%
X127407936Y-120550000D02*
X127862064Y-120550000D01*
X127407936Y-122020000D02*
X127862064Y-122020000D01*
D11*
%TO.C,D1*%
X129921000Y-121539000D02*
X130429000Y-121539000D01*
X135001000Y-121539000D02*
X135509000Y-121539000D01*
X135509000Y-121539000D02*
X135509000Y-115951000D01*
X129921000Y-115951000D02*
X129921000Y-121539000D01*
X130429000Y-115951000D02*
X129921000Y-115951000D01*
X135509000Y-115951000D02*
X135001000Y-115951000D01*
%TO.C,hole2*%
X118237000Y-114300000D02*
G75*
G03*
X118237000Y-114300000I-2032000J0D01*
G01*
%TO.C,J1*%
X117475000Y-111125000D02*
X114935000Y-111125000D01*
X114935000Y-111125000D02*
X114935000Y-90805000D01*
X114935000Y-90805000D02*
X117475000Y-90805000D01*
X117475000Y-90805000D02*
X117475000Y-111125000D01*
D12*
%TO.C,SW1*%
X137960000Y-127300000D02*
X133820000Y-127300000D01*
X137960000Y-127000000D02*
X137960000Y-127300000D01*
X137960000Y-124160000D02*
X137960000Y-124460000D01*
X133820000Y-127300000D02*
X133820000Y-127000000D01*
X133820000Y-124460000D02*
X133820000Y-124160000D01*
X133820000Y-124160000D02*
X137960000Y-124160000D01*
%TO.C,C1*%
X115470000Y-119006252D02*
X115470000Y-118483748D01*
X116940000Y-119006252D02*
X116940000Y-118483748D01*
%TO.C,R5*%
X124867936Y-111660000D02*
X125322064Y-111660000D01*
X124867936Y-113130000D02*
X125322064Y-113130000D01*
%TO.C,R4*%
X120877064Y-113130000D02*
X120422936Y-113130000D01*
X120877064Y-111660000D02*
X120422936Y-111660000D01*
%TO.C,U1*%
X118880000Y-108120000D02*
X118880000Y-107500000D01*
X121000000Y-108120000D02*
X118880000Y-108120000D01*
X135120000Y-107500000D02*
X135120000Y-108120000D01*
X135120000Y-108120000D02*
X133000000Y-108120000D01*
D11*
%TO.C,J2*%
X136525000Y-90805000D02*
X139065000Y-90805000D01*
X139065000Y-90805000D02*
X139065000Y-111125000D01*
X139065000Y-111125000D02*
X136525000Y-111125000D01*
X136525000Y-111125000D02*
X136525000Y-90805000D01*
D12*
%TO.C,R2*%
X133450000Y-112167936D02*
X133450000Y-112622064D01*
X131980000Y-112167936D02*
X131980000Y-112622064D01*
%TO.C,C2*%
X137060000Y-119006252D02*
X137060000Y-118483748D01*
X138530000Y-119006252D02*
X138530000Y-118483748D01*
D11*
%TO.C,Ue*%
X117729000Y-120142000D02*
X117729000Y-116078000D01*
X124841000Y-118618000D02*
X124841000Y-120142000D01*
X117729000Y-116078000D02*
X119253000Y-116078000D01*
X123317000Y-116078000D02*
X124841000Y-116078000D01*
X124841000Y-116078000D02*
X124841000Y-118618000D01*
%TD*%
M02*
