M48
; DRILL file {KiCad 7.0.7} date Sat Sep  2 13:43:44 2023
; FORMAT={-:-/ absolute / inch / decimal}
; #@! TF.CreationDate,2023-09-02T13:43:44-04:00
; #@! TF.GenerationSoftware,Kicad,Pcbnew,7.0.7
; #@! TF.FileFunction,Plated,1,2,PTH
FMAT,2
INCH
; #@! TA.AperFunction,Plated,PTH,ViaDrill
T1C0.0157
; #@! TA.AperFunction,Plated,PTH,ComponentDrill
T2C0.0394
; #@! TA.AperFunction,Plated,PTH,ComponentDrill
T3C0.0866
%
G90
G05
T1
X4.6029Y-4.7825
X4.672Y-4.4906
X4.9732Y-4.68
X5.0295Y-4.7246
X5.0644Y-4.68
X5.1167Y-4.4185
X5.23Y-3.8392
X5.2673Y-4.8773
X5.2809Y-4.6781
T2
X4.575Y-3.625
X4.575Y-3.725
X4.575Y-3.825
X4.575Y-3.925
X4.575Y-4.025
X4.575Y-4.125
X4.575Y-4.225
X4.575Y-4.325
X4.8504Y-4.949
X4.9504Y-4.949
X5.0504Y-4.949
X5.1604Y-4.949
X5.425Y-3.625
X5.425Y-3.725
X5.425Y-3.825
X5.425Y-3.925
X5.425Y-4.025
X5.425Y-4.125
X5.425Y-4.225
X5.425Y-4.315
T3
X4.575Y-4.5
X5.425Y-4.5
T0
M30
